<?xml version="1.0" encoding="UTF-8" standalone="no"?>
<!-- Created with Inkscape (http://www.inkscape.org/) -->

<svg
   width="109.92428mm"
   height="129.43709mm"
   viewBox="0 0 109.92428 129.43709"
   version="1.1"
   id="svg1"
   xml:space="preserve"
   xmlns="http://www.w3.org/2000/svg"
   xmlns:svg="http://www.w3.org/2000/svg"><defs
     id="defs1"><linearGradient
       id="swatch117"><stop
         style="stop-color:#000000;stop-opacity:1;"
         offset="0"
         id="stop117" /></linearGradient></defs><g
     id="layer1"
     transform="translate(-58.984652,-6.2470886)"><path
       style="fill:#000000;fill-opacity:1;fill-rule:nonzero"
       d="m 108.0473,135.31966 c -5.11317,-0.96708 -10.286397,-3.11558 -16.255577,-6.75114 -10.569207,-6.43722 -17.241458,-16.80047 -17.93767,-27.86055 -0.199929,-3.176087 -0.223368,-3.256437 -0.979562,-3.358047 -0.93022,-0.12499 -1.765758,-0.81592 -2.363879,-1.95476 -0.327033,-0.62268 -0.672825,-0.83981 -1.337444,-0.83981 -1.32909,0 -1.796372,-0.25761 -2.499682,-1.37807 -0.499142,-0.7952 -0.915843,-1.05905 -1.942272,-1.22979 -2.607868,-0.43382 -4.448269,-3.31923 -5.165492,-8.09856 -0.548499,-3.655 -0.791644,-15.77102 -0.35986,-17.93196 0.721661,-3.61168 1.27872,-4.95722 2.654673,-6.41217 1.201781,-1.27079 1.35631,-1.6096 1.548396,-3.39497 0.28588,-2.65714 0.37688,-2.90761 1.188703,-3.27181 0.637307,-0.28591 0.730356,-0.64464 1.068269,-4.11846 0.274786,-2.82485 0.681446,-4.78041 1.57836,-7.59004 0.767371,-2.40383 1.163661,-4.17442 1.086122,-4.8527 -0.08715,-0.76236 0.100041,-1.41716 0.654201,-2.28842 0.426955,-0.67128 1.177195,-2.04433 1.667199,-3.05124 2.165124,-4.44909 8.979439,-11.791305 14.534243,-15.66019 6.763456,-4.710701 12.879945,-7.1704653 21.466752,-8.6329163 3.41314,-0.581305 12.21959,-0.511078 15.64958,0.124797 9.05173,1.678077 16.77751,5.3560983 23.08751,10.9913043 3.24646,2.899279 7.838,8.351905 9.96305,11.831495 0.45195,0.74003 1.34787,2.15642 1.99093,3.14754 0.96842,1.49257 1.17617,2.09514 1.20979,3.50892 0.0239,1.00527 0.50056,3.15336 1.15961,5.22584 1.11939,3.52007 1.79052,7.114 1.79052,9.58833 0,1.0997 0.14001,1.40561 0.85221,1.86202 1.27285,0.8157 1.57046,1.34041 1.80681,3.18553 0.18927,1.47767 0.39385,1.85223 1.71218,3.13494 1.06465,1.03588 1.64055,1.91744 1.99328,3.05123 1.00949,3.24481 1.331,10.96303 0.75865,18.21226 -0.60021,7.60221 -1.50036,9.64794 -4.83727,10.99347 -1.11587,0.44995 -2.34382,1.2366 -2.98057,1.90941 -0.86127,0.91005 -1.30963,1.14421 -2.19087,1.14421 -0.89585,0 -1.21038,0.17068 -1.64281,0.89146 -0.29416,0.4903 -0.85985,1.06273 -1.25709,1.27205 -0.61169,0.32233 -0.72226,0.61918 -0.72226,1.93894 0,8.509357 -4.00604,16.949667 -11.6054,24.451407 -5.97303,5.8963 -12.4473,9.61275 -20.25132,11.62492 -3.71729,0.95846 -11.51974,1.26117 -15.09201,0.58553 z m 13.83346,-3.40038 c 6.58268,-1.19757 12.43286,-3.87938 16.69096,-7.65138 7.41867,-6.57176 12.2698,-13.82168 13.50632,-20.18493 0.88953,-4.577597 0.33105,-12.822947 -1.29634,-19.138997 -0.75629,-2.9352 -3.92467,-8.91411 -7.05665,-13.31628 -3.42734,-4.81731 -4.53507,-6.88857 -5.81686,-10.87653 -0.52382,-1.62973 -1.42086,-4.33621 -1.99342,-6.01439 -0.57255,-1.67817 -1.39389,-4.66035 -1.8252,-6.62705 -1.38674,-6.32342 -3.39557,-10.57905 -6.60475,-13.99192 -3.44898,-3.66787 -6.97953,-5.80575 -11.86774,-7.18634 -2.3417,-0.66137 -3.26904,-0.77426 -5.43906,-0.66211 -2.38521,0.12326 -2.88177,0.26753 -5.62726,1.635 -2.47898,1.23471 -3.51003,1.98583 -5.833397,4.24961 -2.42172,2.3596 -3.0239,3.16113 -4.24364,5.64848 -1.70884,3.48475 -2.532797,6.59421 -2.991561,11.28955 -0.489435,5.00927 -0.882026,7.38147 -1.767387,10.67932 -1.109525,4.13282 -1.956637,6.08796 -5.598821,12.92209 -3.964409,7.43874 -4.740274,9.32151 -6.118183,14.8468 -2.087341,8.37006 -2.143559,13.931377 -0.198,19.587027 2.389675,6.94668 8.064319,14.4019 13.946473,18.32258 3.145179,2.09637 8.667056,4.64405 11.652666,5.37629 6.01708,1.47572 13.83678,1.93825 18.48185,1.09318 z m -11.54239,-4.72505 c -10.640017,-1.84599 -19.071378,-7.39781 -24.334362,-16.02351 -2.893238,-4.74183 -4.041421,-9.48981 -3.722878,-15.394867 0.349304,-6.47531 1.495439,-11.43362 4.231836,-18.3074 2.97887,-7.48286 6.577837,-17.27653 7.176087,-19.52788 0.33445,-1.25864 0.72988,-4.01527 0.87873,-6.12585 0.34291,-4.86243 0.95056,-7.43133 2.40411,-10.16368 3.164197,-5.94798 10.442567,-9.79928 16.583447,-8.77502 5.3506,0.89245 10.12104,4.43686 14.00835,10.40813 1.97806,3.03848 2.29341,3.82373 4.49837,11.2015 1.04438,3.49447 2.39851,7.58696 3.00917,9.09442 1.32945,3.28182 6.47578,13.84638 7.58296,15.56656 1.23467,1.91825 2.69472,5.40857 3.41298,8.15889 0.57642,2.20719 0.66041,3.41154 0.67578,9.69082 0.0173,7.062827 0.004,7.209297 -0.85319,9.763937 -2.2013,6.55662 -6.95618,12.75903 -12.47709,16.27552 -6.62138,4.21743 -14.52464,5.64175 -23.0743,4.15843 z m 11.18419,-14.64168 c 3.59903,-1.00381 6.37351,-2.57801 8.8423,-5.01702 3.53225,-3.48962 4.79804,-6.5645 4.79804,-11.655477 0,-6.84348 -4.04741,-13.2542 -10.32241,-16.3497 -3.46857,-1.71107 -5.6576,-2.17189 -9.35577,-1.96949 -5.45749,0.29868 -9.72313,2.23197 -13.28677,6.02189 -5.474207,5.8218 -6.952697,14.16045 -3.707317,20.909297 1.0557,2.19536 3.984697,5.32137 6.105327,6.51601 1.38918,0.78257 4.49388,1.7892 7.0151,2.27449 1.75315,0.33745 7.63843,-0.096 9.9115,-0.73 z m -9.54184,0.28809 c -6.68601,-0.85468 -11.28073,-4.09258 -13.607587,-9.58928 -1.97437,-4.664027 -1.33327,-11.242337 1.57121,-16.122187 1.186387,-1.99325 3.959127,-4.84796 6.011717,-6.18942 3.91773,-2.56042 9.90046,-3.71872 14.13517,-2.73668 8.11188,1.88118 14.08199,8.62192 14.66689,16.56009 0.37363,5.07083 -1.24723,9.359147 -4.77595,12.635787 -3.40949,3.16592 -7.13722,4.79367 -12.47502,5.44734 -2.87379,0.35193 -2.72795,0.35208 -5.52643,-0.006 z M 107.3004,88.225043 c 0.63105,-0.58645 0.90184,-1.1316 0.90184,-1.81558 0,-1.50777 -0.75636,-1.71257 -2.36847,-0.64131 -1.54258,1.02504 -1.77448,2.0138 -0.65298,2.78408 0.95142,0.65346 1.08686,0.63255 2.11961,-0.32719 z m -37.119555,3.88918 c -0.03276,-0.25165 -0.26549,-1.55598 -0.517184,-2.89852 -1.305908,-6.96576 -1.48459,-27.01845 -0.280741,-31.50653 0.326729,-1.21808 0.540661,-2.26727 0.475405,-2.33152 -0.06526,-0.0643 -0.392039,-0.0464 -0.726184,0.0396 -0.862439,0.22206 -1.686685,1.48465 -2.34884,3.59798 -0.508496,1.62291 -0.566124,2.86677 -0.522736,11.28282 0.0645,12.51022 0.862392,20.42027 2.209687,21.90602 0.581308,0.64105 1.797422,0.57716 1.710593,-0.0899 z m 89.064185,0.36619 c 0.66232,-0.41443 1.25332,-2.27354 1.66832,-5.24801 0.2734,-1.95962 0.40945,-6.80318 0.41995,-14.95104 0.0138,-10.73366 -0.045,-12.2451 -0.53751,-13.81383 -0.59315,-1.88922 -1.85027,-3.49131 -2.85578,-3.63945 -0.70281,-0.10354 -0.70543,0.0673 -0.0368,2.39728 1.47919,5.15444 1.50334,26.75602 0.0371,33.20387 -0.2281,1.00307 -0.34811,1.92989 -0.26671,2.05958 0.1891,0.30125 1.08418,0.29646 1.57141,-0.008 z m -92.878283,-2.62544 c 0,-0.23577 -0.230654,-2.26102 -0.512564,-4.50057 -0.381029,-3.02697 -0.520198,-6.81244 -0.542312,-14.75122 -0.02677,-9.60932 0.02808,-10.86274 0.547444,-12.51005 0.317455,-1.00691 0.840399,-2.25886 1.162097,-2.78212 0.321698,-0.52327 0.584905,-1.10681 0.584905,-1.29678 0,-0.50281 -1.299563,-0.42262 -2.100295,0.1296 -0.608545,0.41968 -0.688738,0.74383 -0.688738,2.78392 v 2.30894 l -1.358842,1.17769 c -0.747363,0.64773 -1.580471,1.72307 -1.85135,2.38965 -1.19325,2.93632 -1.339192,8.82825 -0.476604,19.24127 0.346447,4.18225 1.134272,6.43669 2.663126,7.62078 0.92589,0.71709 2.573133,0.83801 2.573133,0.18889 z m 96.784333,0.0863 c 0.86636,-0.43825 2.34699,-1.78687 2.73467,-2.49085 0.69464,-1.2614 1.18415,-7.28861 1.19004,-14.65249 0.007,-8.13395 -0.16262,-9.41499 -1.49818,-11.3484 -0.81405,-1.17844 -2.91629,-2.61449 -3.28948,-2.24705 -0.10018,0.0986 -0.0266,3.36009 0.16355,7.24767 0.3282,6.71082 0.1494,13.99641 -0.53062,21.62138 -0.2105,2.36026 -0.0929,2.53897 1.23002,1.86974 z m -18.37194,-23.68609 c 0.0122,-1.844 0.49829,-5.55171 0.93932,-7.16435 0.18703,-0.68392 0.8126,-1.73741 1.39013,-2.34109 0.57754,-0.60368 1.50773,-1.61523 2.06709,-2.24789 0.85238,-0.96409 1.318,-1.20419 2.87637,-1.48318 1.02264,-0.18309 2.06853,-0.45529 2.32419,-0.60489 0.25566,-0.14961 0.79748,-0.41266 1.20404,-0.58456 0.70549,-0.29829 0.72968,-0.40415 0.53021,-2.32106 -0.11494,-1.10468 -0.69645,-3.88119 -1.29224,-6.17002 -0.9499,-3.64923 -1.21289,-4.28549 -2.13638,-5.16867 -0.57922,-0.55393 -1.24708,-1.58398 -1.48414,-2.28899 -0.282,-0.83866 -0.71618,-1.41872 -1.25581,-1.67775 -0.45364,-0.21776 -1.20207,-0.90428 -1.66319,-1.52562 -0.46112,-0.62133 -1.40167,-1.88488 -2.09011,-2.80788 -1.54271,-2.06831 -6.91387,-7.86787 -7.64209,-8.251595 -0.33259,-0.175257 -0.87756,-0.162985 -1.44736,0.03259 -0.76292,0.261864 -1.44637,0.132804 -4.13665,-0.781098 -8.93282,-3.034541 -19.43972,-4.726268 -25.58884,-4.120082 -4.00638,0.394953 -10.119747,1.816672 -13.030157,3.030281 -1.15541,0.481795 -3.21291,1.335782 -4.572223,1.89775 -2.195534,0.907683 -2.835864,1.379473 -5.73508,4.225553 -1.794982,1.76209 -4.016196,4.30224 -4.936032,5.64478 -0.919836,1.34254 -1.920671,2.64694 -2.224077,2.89867 -0.303407,0.25173 -0.788188,1.07556 -1.077293,1.83074 -0.289104,0.75518 -1.056188,1.87411 -1.704632,2.48652 -0.72508,0.68478 -1.306132,1.59519 -1.509234,2.3647 -0.181635,0.68819 -0.465527,1.76614 -0.63087,2.39546 -0.608887,2.31749 -1.248734,6.06226 -1.248786,7.30864 -4.7e-5,1.14752 0.105913,1.33167 1.007098,1.75024 0.553933,0.25728 1.748245,0.60511 2.654026,0.77295 2.086053,0.38654 2.117927,0.40556 4.505448,2.68785 1.852605,1.77095 2.039437,2.07437 2.627191,4.26666 0.348013,1.29808 0.728243,3.29285 0.844955,4.43283 0.134948,1.31811 0.33853,2.03123 0.559198,1.95881 0.906241,-0.29743 2.907479,-6.79227 5.143922,-16.69412 2.010969,-8.90356 2.482019,-10.50377 3.950186,-13.4192 1.155053,-2.29366 1.997483,-3.4506 4.003703,-5.49843 1.39747,-1.42646 3.33259,-3.06412 4.300267,-3.63925 2.01853,-1.1997 9.67499,-3.631692 10.60119,-3.632122 0.80847,-3.8e-4 4.40767,0.498142 8.32314,1.993522 9.01304,3.44223 14.39373,10.19584 17.03858,21.3861 0.80391,3.40134 4.51126,14.79353 5.33292,16.38737 0.90117,1.74805 2.54672,4.11916 2.85871,4.11916 0.17256,0 0.31805,-0.6522 0.32331,-1.44933 z m 17.90685,-9.35317 c 0.11519,-1.35026 -0.61226,-2.62292 -1.49926,-2.62292 -0.7126,0 -0.80994,0.67942 -0.17202,1.2007 0.24233,0.19802 0.5347,0.90839 0.6497,1.57858 0.25928,1.51107 0.88753,1.41491 1.02158,-0.15636 z m -94.271444,-4.38205 c 0.188864,-0.1233 0.515258,-1.59723 0.725321,-3.2754 0.210063,-1.67818 0.829583,-4.78102 1.376713,-6.8952 0.54713,-2.11418 0.941236,-4.00213 0.875791,-4.19545 -0.06545,-0.19331 -0.369271,-0.35147 -0.675168,-0.35147 -1.077188,0 -2.737595,5.6665 -3.389501,11.56741 -0.35348,3.19962 -0.102649,3.92663 1.086844,3.15011 z m 91.437404,-2.74144 c -0.28741,-3.95326 -2.29455,-10.97365 -3.5081,-12.27031 -0.3671,-0.39225 -0.47389,-0.3919 -0.87483,0.003 -0.40231,0.39612 -0.34768,0.79439 0.45895,3.34545 0.99189,3.137 1.70912,6.41302 2.03681,9.3034 0.2538,2.23858 0.28166,2.28842 1.27896,2.28842 h 0.80231 z M 73.577049,36.963353 c 0.268799,-0.29368 0.577021,-0.88248 0.684939,-1.30844 0.164249,-0.64831 -0.01084,-0.93831 -1.074769,-1.78014 -1.424089,-1.12682 -1.684859,-1.05642 -2.654683,0.71672 -0.661529,1.20948 -0.490905,1.53909 1.257331,2.42889 1.163213,0.59204 1.194007,0.59105 1.787182,-0.057 z m 82.426131,-0.88558 c 0.46871,-0.23478 0.84757,-0.66363 0.84191,-0.953 -0.012,-0.61155 -1.53007,-2.86481 -2.04247,-3.03156 -0.1916,-0.0623 -0.79855,0.25962 -1.34879,0.71549 -0.86832,0.7194 -0.97753,0.96783 -0.82699,1.88121 0.34595,2.099 1.23061,2.46264 3.37634,1.38786 z m -79.305374,-4.3778 c 6.448324,-10.068862 9.747843,-13.516542 15.856497,-16.568521 7.598787,-3.796468 14.837647,-5.3285143 23.691027,-5.014015 7.69731,0.273433 15.05609,2.531425 21.0621,6.462757 3.59742,2.354756 9.29118,8.621039 12.35212,13.594169 0.67139,1.09081 1.41464,2.01907 1.65166,2.06279 0.68451,0.12625 2.44525,-1.08416 2.44525,-1.68098 0,-2.05481 -8.68996,-11.628443 -13.27527,-14.625219 -4.78152,-3.125009 -11.48273,-5.9335503 -17.09421,-7.1643413 -2.79706,-0.613492 -4.08048,-0.712371 -9.14183,-0.704318 -5.19912,0.0083 -6.34483,0.105572 -9.79309,0.831683 -9.582257,2.0177653 -16.987685,5.8575133 -23.905268,12.3949873 -3.23929,3.061298 -6.660833,7.140598 -7.578544,9.035438 l -0.553045,1.1419 1.081849,0.89027 c 0.595017,0.48965 1.360752,0.85116 1.701634,0.80336 0.341033,-0.0478 1.015271,-0.70444 1.49912,-1.45996 z"
       id="path14" /><path
       style="opacity:1;fill:#72b013;fill-opacity:1;fill-rule:nonzero;stroke-width:0.353553"
       d="m 419.22455,98.625513 c -6.87019,0.0433 -13.90194,0.970003 -19.98241,4.382097 -6.93551,3.30767 -13.97994,6.67958 -19.63773,12.00338 -6.70982,6.01389 -13.57155,12.12011 -18.62226,19.64797 -8.10072,13.44737 -13.28378,28.64773 -14.98251,44.26322 -2.33927,18.51869 -3.90355,37.39019 -10.0545,55.11005 -5.65941,18.17524 -15.82349,34.47582 -24.24252,51.44857 -6.25459,11.99068 -12.01202,24.33618 -15.39058,37.48247 -3.50855,13.15835 -6.74717,26.51136 -7.73339,40.12884 -0.23858,10.46883 -0.77356,21.1267 1.90827,31.36023 5.21094,21.52013 16.86483,41.04293 31.17347,57.74935 9.96422,11.54489 21.77706,21.60995 35.38509,28.60762 13.60111,7.26156 27.91127,13.70797 43.23732,16.20003 12.02567,2.28562 24.23502,3.68279 36.49023,3.49947 8.90176,0.113 17.87949,0.14206 26.60771,-1.86871 19.07062,-3.96687 37.72053,-11.25137 53.49605,-22.81702 13.69613,-10.72681 25.89328,-23.36245 36.45498,-37.17381 11.85587,-15.90207 21.76091,-34.34098 23.19044,-54.46667 0.31279,-11.36331 0.32445,-22.7891 -0.85958,-34.10548 -2.00094,-15.57533 -4.39364,-31.53825 -11.91416,-45.55578 -5.83425,-12.25657 -13.04489,-23.77398 -20.71186,-34.95375 -7.10818,-10.56084 -14.63063,-21.13693 -18.71143,-33.29017 -6.9633,-19.5725 -13.28673,-39.36999 -18.2231,-59.53437 -3.60774,-14.9449 -9.11543,-29.76323 -18.74876,-41.92941 -11.50076,-14.66337 -27.10268,-26.30609 -44.9643,-31.93258 -7.50947,-2.32036 -15.20002,-4.769255 -23.16447,-4.255547 z m 2.03017,25.976507 c 9.34136,-0.50776 18.5249,2.64864 26.6686,6.78449 16.07029,8.42504 27.98491,22.84043 37.1616,38.14096 6.81752,12.14341 9.87814,25.91246 14.28847,39.06482 5.01964,15.84647 9.83382,31.85389 17.30651,46.76338 7.96005,16.92475 16.28091,33.73143 25.1821,50.14484 6.62413,13.37598 11.97379,27.78764 11.68212,42.7809 0.20907,14.18322 0.61466,28.42937 -0.0404,42.57601 -1.58146,13.47032 -7.71442,25.93313 -14.68282,37.38896 -10.17888,15.84959 -23.47476,30.25739 -40.18215,39.29117 -13.5818,7.4913 -28.63508,12.51254 -44.12183,13.94797 -9.60891,0.32396 -19.43316,0.64954 -29.07946,-0.16727 -26.92312,-3.41886 -53.62522,-13.31507 -74.29955,-31.42156 -18.05112,-15.86776 -32.76651,-36.75072 -37.67879,-60.54394 -3.10669,-16.17354 -1.97881,-32.91991 0.45625,-49.13012 2.83765,-18.94587 9.60174,-36.90522 16.53598,-54.66677 8.04247,-21.03024 16.35804,-41.98784 23.16335,-63.46003 5.66833,-18.06557 3.29316,-37.64374 9.5682,-55.45687 3.91983,-11.17337 11.21611,-21.10931 20.55995,-28.45137 8.96944,-7.23224 20.01394,-11.85753 31.47277,-13.47025 2.00924,-0.14138 4.02643,-0.10572 6.03911,-0.11532 z"
       id="path18"
       transform="scale(0.26458333)" /><path
       style="opacity:1;fill:#5b4034;fill-opacity:1;fill-rule:nonzero;stroke-width:0.353553"
       d="m 439.84804,292.38313 c -18.24878,0.50508 -36.81292,6.80457 -49.96827,19.80863 -8.36187,7.85603 -15.80357,17.10382 -19.42231,28.1456 -3.48557,9.65826 -5.31306,19.95241 -4.67886,30.23148 0.23369,15.19917 7.18501,30.03931 18.12491,40.49301 9.2313,8.83197 21.26005,14.40803 33.80737,16.52523 17.80917,3.58834 36.59942,0.93624 53.25883,-6.06374 11.50419,-4.94061 21.52933,-13.10206 29.29245,-22.86772 13.04163,-17.65795 14.38278,-42.26343 5.72099,-62.1004 -10.31929,-24.29117 -34.64805,-42.21914 -61.07281,-44.06506 -1.68501,-0.10535 -3.37433,-0.14336 -5.0623,-0.10703 z m -33.75883,31.45106 c 1.47804,1.41265 0.67646,4.11563 -0.16987,5.75077 -1.3873,1.91723 -3.25321,4.92614 -6.00419,4.24885 -1.97797,-0.70687 -3.88557,-3.33492 -1.94938,-5.12929 2.14604,-2.28029 4.95534,-4.42403 8.12344,-4.87033 z"
       id="path20"
       transform="scale(0.26458333)" /><path
       style="opacity:1;fill:#201b1b;fill-opacity:1;fill-rule:nonzero;stroke-width:0.353553"
       d="m 428.72216,23.808921 c -12.438,-0.01247 -24.94267,0.713938 -37.0584,3.712758 -16.77655,3.774122 -33.30424,9.124033 -48.42281,17.427248 -11.18726,5.927765 -21.79343,13.005742 -31.5907,21.022682 -14.87734,12.664799 -28.65707,26.843379 -39.71038,43.002931 -4.48043,7.16136 -8.18313,14.77697 -12.30048,22.14474 -2.12105,4.36679 -0.78575,9.40562 -2.38407,13.93642 -2.91376,11.46183 -7.17309,22.64184 -8.32339,34.49554 -0.99331,6.08479 -0.85211,12.41784 -2.70685,18.32679 -1.12524,2.39625 -4.81712,2.50568 -5.034,5.58366 -1.62567,5.64593 -0.75902,11.98846 -3.65983,17.23849 -3.22658,4.37682 -7.54083,8.06014 -9.38603,13.34684 -3.00157,7.68663 -4.94171,15.90379 -4.6904,24.19809 -0.18265,18.95364 -0.4285,37.99093 1.69878,56.85403 1.50673,10.07517 3.83078,21.07882 11.62958,28.27571 3.13791,3.21096 7.72693,3.59347 11.67992,5.15491 4.13326,2.0048 5.24974,8.28504 10.47054,8.39301 2.79265,0.20906 6.16798,0.38057 7.55374,3.30042 2.21513,3.7206 5.47357,7.22711 10.02313,7.73128 2.61718,1.13003 1.88111,4.76034 2.39848,7.05593 0.7541,12.17712 2.31019,24.40325 6.46468,35.93994 10.87891,32.62188 35.33326,59.62098 64.86032,76.68747 20.14525,11.79524 41.96501,21.9546 65.40945,24.5471 14.84578,0.92677 29.84414,0.35787 44.5277,-2.08055 14.80478,-3.05 29.09743,-8.50855 42.44091,-15.57707 22.38354,-12.13395 41.56091,-29.7237 57.01819,-49.8494 15.15659,-19.92288 25.32688,-44.18562 25.97169,-69.41639 0.30293,-2.76128 -0.0684,-5.76817 0.99908,-8.35525 2.44262,-2.06786 5.19529,-3.93795 6.84733,-6.80384 2.52289,-4.40079 8.62246,-1.70217 11.87512,-5.09268 3.94788,-3.8375 8.37653,-7.19113 13.50337,-9.29942 5.55765,-2.25752 10.73317,-6.12952 12.97378,-11.87374 4.20877,-10.50586 4.60486,-22.02378 5.59032,-33.16586 1.133,-19.41565 1.3912,-39.03938 -1.56568,-58.31216 -0.83937,-6.1064 -3.09154,-12.11794 -7.49653,-16.56037 -3.02585,-3.53996 -7.20192,-6.72205 -7.65747,-11.71061 -0.85945,-4.49919 -1.19883,-9.87211 -5.46074,-12.62774 -2.09166,-1.65249 -5.02272,-3.23907 -4.75568,-6.35429 -0.56696,-13.19774 -3.15292,-26.231 -7.1544,-38.80503 -2.35573,-7.40145 -3.90267,-15.0257 -4.62201,-22.75678 -0.66736,-5.59312 -4.77145,-9.87789 -7.36059,-14.66218 C 584.04909,106.88503 575.80069,95.494222 566.44706,85.032723 555.45623,72.254412 542.9956,60.651419 528.72181,51.610645 507.66955,38.010624 483.60132,29.285683 458.90194,25.311522 c -9.99911,-1.21074 -20.11569,-1.482065 -30.17978,-1.502601 z m 6.8128,6.616696 c 10.18045,-0.04143 20.4478,0.05969 30.40272,2.465826 21.85975,4.883342 42.79363,13.681033 61.98951,25.166476 13.91705,8.742423 25.20465,20.907983 36.37327,32.804086 6.0373,6.907376 12.2474,13.920245 16.33504,22.198425 1.291,2.13459 0.22892,4.59548 -1.79333,5.79773 -2.13214,1.44464 -4.71371,3.64091 -7.42946,2.87193 -3.96788,-3.56679 -6.28539,-8.60683 -9.47826,-12.8392 C 550.81851,93.137248 538.30785,78.0902 523.15544,66.051647 505.31319,52.762472 483.87324,44.955021 462.14607,40.859585 c -21.17288,-3.680309 -42.98616,-3.284588 -64.15536,0.211925 -20.60956,3.820916 -40.55791,11.385382 -58.52697,22.173114 -18.84908,11.504418 -31.70067,30.030803 -43.74526,48.041656 -3.20997,4.43921 -5.64452,9.59462 -9.73246,13.3116 -2.99128,2.35074 -6.23966,-0.85527 -8.69515,-2.48 -1.02683,-1.3469 -4.5654,-2.28977 -3.43968,-4.13333 5.6973,-11.78088 14.81807,-21.39899 23.6267,-30.899807 21.56248,-22.546308 48.63499,-40.09621 78.68774,-48.858765 15.29582,-4.547783 31.11022,-8.131656 47.16137,-7.761399 4.06917,-0.04207 8.13861,-0.05201 12.20796,-0.03896 z m -17.41319,32.299036 c 30.78404,0.813402 61.04565,8.006899 90.13696,17.756639 3.83158,1.373364 8.01126,2.147349 11.94191,0.661283 3.88308,-0.873829 6.27171,3.198063 8.83429,5.343804 11.33437,11.161157 21.64691,23.312591 31.08021,36.112031 2.27291,3.35695 5.61008,5.63492 8.72878,8.09205 3.00557,4.10065 4.28342,9.33543 7.99714,12.98851 5.28753,5.04869 6.25931,12.62942 8.30292,19.29464 2.36728,9.86233 4.9437,19.81259 5.40413,29.9823 0.006,2.78763 -3.52751,3.32831 -5.40205,4.57202 -5.4322,2.89945 -12.03021,2.3623 -17.38075,5.3689 -4.92847,3.86812 -8.8722,8.86044 -12.9482,13.58557 -4.92979,5.65515 -5.11928,13.53053 -6.27919,20.56769 -0.95452,6.0263 -0.78165,12.20134 -1.83666,18.19198 -0.94021,1.90859 -2.41381,-0.83875 -3.17093,-1.55232 -5.46074,-6.84344 -9.6079,-14.65372 -12.29294,-22.98461 -7.33288,-20.45568 -13.54251,-41.29673 -19.13226,-62.28917 -5.84398,-20.1401 -16.02446,-39.59364 -32.17696,-53.35598 -14.60727,-12.96842 -33.50432,-19.225964 -51.77859,-25.052782 -4.13972,-1.088456 -15.29717,-1.336193 -19.53836,0.660418 -11.79772,4.079282 -16.67374,6.783338 -27.81367,12.423574 -8.79431,5.13103 -15.8579,12.66657 -22.77088,20.0241 -10.24729,11.64613 -15.74021,26.59537 -19.29766,41.48452 -6.68108,26.41408 -11.48215,53.38976 -20.63551,79.11662 -1.32752,2.86891 -2.06575,6.4463 -4.63596,8.47278 -1.79464,-0.30752 -1.48494,-3.08418 -1.97217,-4.44132 -1.53183,-9.30173 -2.49905,-18.93734 -6.44613,-27.60153 -4.42223,-6.04765 -9.95999,-11.31033 -15.95368,-15.78762 -5.32128,-2.75117 -11.61725,-2.70778 -17.10149,-5.11968 -2.21362,-0.84155 -5.04092,-2.09757 -4.6473,-4.98772 -0.30963,-11.02075 2.65244,-21.80129 5.121,-32.45026 1.32887,-4.94837 2.39871,-10.28185 6.21826,-14.00956 4.21591,-4.14432 6.95747,-9.3857 9.56113,-14.61308 2.69808,-4.25848 6.34136,-7.83128 9.11477,-12.05391 8.89604,-12.36893 19.48273,-23.514247 31.07776,-33.377008 7.31974,-5.432571 16.2395,-8.000563 24.47742,-11.67725 13.71193,-5.773184 28.33445,-9.028 42.93783,-11.608056 7.36265,-1.176339 14.81764,-1.822514 22.27683,-1.737573 z m 2.9541,35.713725 c 10.09199,0.223025 19.82526,3.562632 29.14882,7.175342 23.70894,10.23347 42.79951,30.63458 51.28045,55.04746 4.7562,14.00603 7.64165,28.5621 12.13569,42.65255 4.26141,13.50226 8.3198,27.12588 13.9198,40.14808 7.32806,15.65066 18.53474,29.01768 27.1561,43.92488 8.01827,13.66533 15.51077,28.03448 18.19168,43.82102 3.19036,15.88981 4.34524,32.1308 3.76167,48.31863 0.22019,9.20611 -1.77226,18.29586 -4.98345,26.88498 -9.02834,24.13564 -26.38531,44.0384 -45.01845,61.36467 -12.91858,12.18133 -28.82178,20.83409 -45.65236,26.28871 -12.11439,4.03012 -24.78106,6.92841 -37.62386,6.49304 -11.69469,0.14202 -23.43839,-0.002 -34.993,-2.01935 -13.90823,-1.86298 -27.55982,-5.70837 -40.15357,-11.94933 -12.6011,-5.85141 -24.88631,-12.75193 -35.05367,-22.34206 -17.94196,-16.61684 -32.17983,-37.48119 -40.25733,-60.61479 -3.46246,-9.84597 -5.043,-20.29838 -4.59456,-30.72931 -0.0113,-10.24737 0.784,-20.5067 3.12161,-30.50431 3.49288,-16.54449 7.93452,-33.04272 15.66097,-48.17009 8.57286,-17.72869 18.69557,-34.73337 26.08649,-53.0171 5.69638,-14.3439 8.53911,-29.58688 10.42949,-44.84503 2.20097,-16.35491 3.3317,-33.2584 10.40482,-48.43684 3.58115,-7.71458 7.32324,-15.5697 13.47853,-21.61002 7.96615,-8.40004 16.61433,-16.55448 27.30377,-21.35264 5.74866,-3.02396 11.80262,-5.738576 18.38377,-6.131922 2.61126,-0.285151 5.2398,-0.421163 7.86659,-0.39657 z m 163.81814,22.861512 c 2.77451,0.84788 3.99272,4.05112 5.65286,6.19279 0.99501,2.13832 3.6648,4.88765 1.54666,7.15523 -2.99216,2.82045 -7.57492,4.62253 -11.66864,3.57973 -2.71794,-1.46866 -3.29215,-5.05466 -3.8677,-7.83618 -0.86526,-4.10494 3.35936,-6.6571 6.29078,-8.52326 0.62985,-0.32417 1.32175,-0.62055 2.04604,-0.56831 z m -313.02388,3.86215 c 3.1179,0.72776 5.5345,3.28252 7.8417,5.38341 2.73353,3.15423 0.0823,7.65131 -2.30155,10.16466 -1.89959,2.33285 -4.66341,-0.0909 -6.70181,-0.92194 -2.42702,-1.34293 -6.50965,-3.07779 -5.41153,-6.55793 1.22546,-2.80642 2.49324,-6.04594 5.09406,-7.83825 0.46278,-0.20586 0.97844,-0.24971 1.47913,-0.22995 z m 317.40738,15.26909 c 3.70817,2.14213 4.79068,6.80188 6.4351,10.483 5.27165,14.63722 8.43995,30.0327 9.27763,45.57164 1.17507,2.82482 -2.07699,1.63694 -3.75336,1.8487 -2.81425,0.49874 -3.6882,-2.51064 -3.86745,-4.67292 -1.55641,-14.26904 -4.72931,-28.31321 -9.07604,-41.98441 -0.62232,-3.13961 -2.67332,-6.65483 -1.12546,-9.77241 0.5637,-0.56775 1.25946,-1.40932 2.10958,-1.4736 z m -321.48982,2.41134 c 2.19426,-0.27928 2.49968,2.20065 1.94247,3.74477 -2.52332,12.35091 -5.91611,24.52539 -7.83973,37.00152 -0.94313,4.96452 -1.05454,10.26959 -3.13838,14.91213 -1.21273,1.33191 -4.38875,2.12238 -4.56097,-0.50133 -0.90147,-8.64918 0.83365,-17.33753 2.24216,-25.84806 1.93593,-9.15377 3.6607,-18.59363 8.04886,-26.95016 0.70054,-1.17574 1.7552,-2.56117 3.30559,-2.35887 z m -14.40316,59.93421 c 1.43876,-0.21412 3.11888,1.06917 1.88033,2.52321 -3.50221,7.61719 -7.64242,15.31908 -7.76361,23.92452 -0.93236,20.53112 -0.32862,41.09651 -0.18597,61.63977 0.0383,14.2778 1.18462,28.51933 3.06823,42.66651 0.0268,2.34856 1.00386,4.99851 0.0207,7.2057 -6.19456,2.25684 -12.33935,-3.01497 -14.70492,-8.50117 -4.89043,-10.62508 -4.60557,-22.61714 -5.75643,-34.02473 -1.04307,-15.55373 -1.21697,-31.19089 -0.35204,-46.75669 0.95856,-7.01799 1.84963,-14.7675 7.07871,-20.06488 2.42915,-2.84825 5.33995,-5.21636 8.16621,-7.65039 0.27209,-5.69413 -0.62228,-11.57532 0.83002,-17.14043 1.35598,-2.72091 4.88657,-3.77077 7.71879,-3.82142 z m 356.34452,2.29119 c 4.48225,1.06268 5.5999,6.60691 5.16736,10.57945 -0.15994,1.34357 -0.29281,4.19175 -2.12485,4.12616 -2.53639,-2.26137 -1.74277,-6.24673 -3.75099,-8.90581 -1.08831,-1.43507 -3.37318,-3.85193 -1.37487,-5.47525 0.63576,-0.32475 1.38498,-0.33767 2.08335,-0.32455 z m -13.62906,1.86099 c 5.5101,0.9766 8.69102,6.48832 10.7668,11.19563 3.42876,8.29213 2.48587,17.49635 2.93605,26.25677 0.32612,25.72934 0.12912,51.47343 -0.74568,77.19005 -0.76375,8.72883 -1.43274,17.81781 -5.27427,25.82873 -1.21605,2.89909 -5.41103,4.08072 -7.94184,2.36094 -0.42292,-3.88854 1.16945,-7.77233 1.56614,-11.64931 3.28889,-23.13616 3.61041,-46.58344 3.3962,-69.91439 -0.49706,-16.31813 -0.53606,-32.78355 -3.58139,-48.87779 -0.54278,-3.95695 -2.57483,-7.80279 -2.18542,-11.82508 0.15482,-0.43353 0.63668,-0.60321 1.06341,-0.56555 z m -332.41891,2.02603 c 1.36592,0.26745 0.0224,2.40481 0.12775,3.30834 -4.17413,16.26274 -4.13514,33.19667 -4.41645,49.87311 0.14463,25.29891 0.17659,50.7615 4.28111,75.7951 0.45362,3.6699 1.63092,7.36795 1.54127,11.04578 -1.6224,2.65303 -5.80045,0.96005 -7.18708,-1.167 -3.3657,-6.41994 -3.82387,-13.88732 -4.90006,-20.9416 -2.92756,-25.99582 -2.83636,-52.208 -2.92576,-78.33233 0.19836,-11.09617 -0.42027,-22.85366 4.99073,-32.95967 1.65343,-3.24689 4.42727,-6.8524 8.48849,-6.62173 z m 350.6511,14.49085 c 7.17377,2.24681 12.66018,8.58886 15.06604,15.5964 2.3839,7.60448 1.77307,15.73138 2.16293,23.59334 0.11395,20.01177 0.0894,40.11611 -2.42534,59.99994 -0.54136,4.68118 -2.06132,9.5147 -5.92824,12.51911 -2.97317,2.591 -6.22229,5.61188 -10.24612,6.19091 -2.53059,-1.29023 -1.09997,-4.76573 -1.27159,-6.99835 2.0895,-23.35821 2.98912,-46.81723 2.49729,-70.26619 -0.15655,-13.24821 -1.26134,-26.49794 -0.99783,-39.74092 0.0935,-0.55737 0.56045,-0.97602 1.14286,-0.89424 z"
       id="path21"
       transform="scale(0.26458333)" /><path
       style="opacity:1;fill:#84cc16;fill-opacity:1;fill-rule:nonzero;stroke-width:0.353553"
       d="m 420.69608,124.85061 c -15.41179,-0.15109 -30.04327,7.2885 -41.26493,17.45463 -10.90751,10.35175 -17.88136,24.64122 -19.53521,39.57588 -2.29307,15.29579 -2.53089,31.06984 -7.94308,45.72791 -9.94896,30.5379 -23.07451,59.94349 -32.80878,90.55242 -5.66904,18.79049 -7.88602,38.58359 -7.13943,58.17335 1.13613,18.14047 7.84603,35.72269 18.5436,50.36892 15.2624,21.80461 37.59518,38.52626 62.86619,46.9108 10.65682,3.60123 21.69348,6.25179 32.87265,7.50383 10.79303,0.15019 21.61404,0.34136 32.39256,-0.29299 23.45346,-3.56317 46.18833,-14.06984 62.82285,-31.193 12.65318,-12.86096 22.53028,-28.49589 28.67434,-45.45774 2.2731,-6.55994 3.41626,-13.46423 3.24608,-20.40962 -0.0475,-14.88926 0.4402,-29.81838 -0.70224,-44.67716 -1.65027,-16.67582 -10.36745,-31.39238 -17.63765,-46.12052 -8.77224,-17.42139 -17.89324,-34.7295 -25.18377,-52.8293 -7.81884,-20.40958 -13.22036,-41.66878 -21.00674,-62.09558 -6.01898,-13.62648 -15.19699,-25.78592 -26.08008,-35.905 -9.63287,-8.63477 -21.62461,-15.0282 -34.49839,-16.93396 -2.52901,-0.27292 -5.07523,-0.36494 -7.61797,-0.35287 z m 19.85354,167.80045 c 10.90114,-0.21953 21.81667,2.31142 31.40503,7.53778 19.69011,10.00678 34.67684,29.22518 38.45767,51.10443 2.93991,16.52481 0.005,34.85247 -10.80616,48.06324 -7.89821,9.97705 -18.18002,18.15628 -30.11895,22.73571 -11.42897,4.73447 -23.77034,7.26683 -36.16195,6.85679 -8.00042,0.23848 -15.98676,-0.70495 -23.59486,-3.25278 -10.57988,-3.19153 -20.63498,-8.65429 -28.13426,-16.89734 -10.4023,-10.90159 -16.12713,-25.87266 -15.93525,-40.9148 -0.27875,-17.69843 5.58544,-35.73576 17.56209,-48.97561 10.97651,-12.97507 26.33969,-22.44671 43.2287,-25.10837 4.6487,-0.79255 9.38012,-1.1514 14.09794,-1.14905 z"
       id="path23"
       transform="scale(0.26458333)" /><path
       style="opacity:1;fill:#84cc16;fill-opacity:1;fill-rule:nonzero;stroke-width:0.353553"
       d="m 421.36106,124.05581 c -16.98399,-0.24933 -33.25028,8.08083 -44.841,20.16517 -9.88513,10.0064 -15.7352,23.5529 -17.43254,37.43057 -1.9431,13.16224 -2.79968,26.56116 -6.14266,39.40523 -9.15092,30.36049 -22.22757,59.39516 -32.16347,89.50496 -5.09992,15.09127 -8.54779,30.77724 -9.36525,46.7133 -0.8365,13.0123 -0.63115,26.30905 3.22704,38.87532 6.00628,20.96236 19.33222,39.27196 35.54412,53.58678 14.94075,13.16275 33.10227,22.3803 52.28697,27.54405 11.63938,3.32221 23.71432,5.27955 35.84423,4.88623 10.89309,-0.11321 21.95961,0.0567 32.54142,-2.93478 20.58564,-5.28776 39.84626,-16.24617 54.12424,-32.09271 12.23173,-13.3759 21.92214,-29.31481 27.16032,-46.71961 2.76162,-9.17368 1.83263,-18.86595 2.14905,-28.30672 -0.1605,-13.07391 0.45182,-26.26808 -1.62042,-39.22674 -2.5424,-12.53765 -8.92049,-23.82207 -14.31369,-35.28886 -9.76615,-20.16836 -20.62973,-39.90692 -28.67147,-60.83876 -7.0442,-19.03324 -12.35526,-38.68882 -19.51737,-57.69049 -6.0439,-14.45922 -15.65791,-27.3524 -27.25017,-37.84139 -11.37571,-10.06357 -26.07406,-17.49838 -41.55935,-17.17155 z m 19.87426,169.68905 c 6.13703,-0.28089 12.28281,0.51647 18.14516,2.39478 21.13284,6.30257 39.33789,22.7907 46.86456,43.70317 3.31566,8.66337 4.64203,18.03099 4.09961,27.29822 -0.39402,15.19585 -7.80998,30.01384 -19.29969,40.00154 -7.08816,6.70854 -15.46872,11.96034 -24.65633,15.16917 -9.65914,3.61582 -19.83063,5.68704 -30.1711,5.56925 -7.59055,0.30998 -15.18895,0.0407 -22.52416,-2.08049 -13.54031,-3.32619 -26.45077,-10.53269 -34.91668,-21.77831 -7.68688,-9.87315 -12.06798,-22.29834 -12.15133,-34.82188 -0.45014,-17.81018 5.25518,-36.12113 17.18654,-49.64053 12.30698,-14.47932 30.22092,-24.47971 49.35054,-25.55617 2.68968,-0.19065 5.39239,-0.25908 8.07288,-0.25875 z"
       id="path25"
       transform="scale(0.26458333)" /><path
       id="path46"
       style="opacity:1;fill:#ffca5e;fill-opacity:1;fill-rule:nonzero;stroke-width:0.5"
       d="m 253.88477,202.57812 c -0.30373,-0.0367 -0.60316,-0.0298 -0.86524,0.004 -1.89475,0.10027 -3.91331,0.72585 -5.4707,1.87891 -1.56164,1.1562 -2.65645,2.86733 -2.61524,5.06054 v -0.0332 c -0.47602,4.83069 -0.22207,9.67759 -0.3125,14.48242 -6.21524,4.6088 -12.07514,10.60442 -13.66797,18.52539 h 0.002 c -3.04878,14.92941 -2.17008,30.29778 -1.70313,45.37891 a 0.27807876,0.27807876 0 0 0 0,0.0117 c 0.89753,13.03853 0.90853,26.37348 4.36133,39.12695 0.90946,3.3449 2.55365,6.92577 4.95313,9.69922 2.39744,2.7711 5.56684,4.73789 9.47851,4.79297 1.19867,0.11011 2.10714,-0.47344 2.58008,-1.32031 0.4663,-0.83499 0.54314,-1.90867 0.23437,-2.88477 v -0.004 c -2.02189,-17.10491 -3.57765,-34.26123 -3.40234,-51.49609 a 0.27807876,0.27807876 0 0 0 0,-0.002 c -0.0408,-19.77607 -0.45379,-39.57627 0.43359,-59.31836 0.6292,-7.85001 4.86397,-14.68711 7.60938,-21.99024 a 0.27807876,0.27807876 0 0 0 0.006,-0.0156 c 0.11988,-0.38576 0.0946,-0.74298 -0.0527,-1.02734 -0.14735,-0.28437 -0.39825,-0.48266 -0.67578,-0.61719 -0.27752,-0.13453 -0.58679,-0.215 -0.89257,-0.25196 z"
       transform="scale(0.26458333)" /><path
       id="path47"
       style="opacity:1;fill:#ffca5e;fill-opacity:1;fill-rule:nonzero;stroke-width:0.5"
       d="m 264.94141,208.23828 c -0.43411,-9.9e-4 -0.96663,0.18151 -1.47461,0.35938 -0.50799,0.17786 -1.01315,0.35603 -1.14844,0.36914 a 0.24361445,0.24361445 0 0 0 -0.0273,0.004 c -2.50297,0.52475 -4.28708,2.19853 -5.65625,4.22461 -1.36918,2.02609 -2.33904,4.41384 -3.23243,6.42969 a 0.24361445,0.24361445 0 0 0 -0.004,0.01 c -4.49501,11.26645 -3.01551,23.74371 -3.44727,35.44726 a 0.24361445,0.24361445 0 0 0 0,0.0137 c 0.34427,28.01751 -0.15603,56.15156 4.98828,83.86133 a 0.24361445,0.24361445 0 0 0 0.004,0.0176 c 0.55298,2.10053 1.06691,4.75056 2.12305,6.99219 1.053,2.23498 2.68337,4.08157 5.41406,4.47851 0.003,7e-4 0.005,-6.8e-4 0.008,0 1.17251,0.29167 2.0771,-0.27923 2.51758,-1.1289 0.43303,-0.83531 0.47632,-1.9236 0.0996,-2.82618 -3.39711,-18.94567 -4.92319,-38.15542 -5.23047,-57.40429 v -0.002 c -0.18831,-20.70957 -0.82693,-41.50145 1.23633,-62.10937 a 0.24361445,0.24361445 0 0 0 0,-0.006 c 0.43235,-5.66712 3.77509,-12.42348 4.48242,-18.17969 a 0.24361445,0.24361445 0 0 0 0,-0.0488 c -0.0124,-0.16141 -0.10592,-0.32139 -0.23633,-0.40234 -0.13041,-0.081 -0.27189,-0.0993 -0.41601,-0.0996 z"
       transform="scale(0.26458333)" /><path
       style="opacity:1;fill:#ffca5e;fill-opacity:1;fill-rule:nonzero;stroke-width:0.5"
       d="m 267.52832,142.90918 c -3.47297,-0.43411 -4.29474,5.18296 -5.6377,7.93848 -4.64509,13.86074 -7.4038,28.35416 -8.10839,42.95507 0.14665,1.87359 -0.0108,6.4615 2.99121,6.11328 3.596,-0.92027 3.23775,-5.92333 4.15387,-8.73181 1.9475,-13.91501 5.01319,-27.77225 8.2487,-41.43585 -0.0102,-2.04285 1.94213,-4.96423 0.1531,-6.62433 -0.43459,-0.28812 -0.78815,-0.0883 -1.30078,-0.15234 z"
       id="path48"
       transform="scale(0.26458333)" /><path
       style="opacity:1;fill:#ffca5e;fill-opacity:1;fill-rule:nonzero;stroke-width:0.5"
       d="m 271.1582,124.72266 c -3.05824,0.83665 -4.18491,5.08073 -5.5166,7.61914 -1.7026,3.1549 1.4807,6.01431 4.04114,7.08629 2.18389,0.8552 6.07886,3.77921 8.05554,1.05238 1.61309,-2.29101 4.50287,-5.57316 3.58203,-8.52344 -2.52506,-2.66046 -5.88422,-6.37163 -9.68555,-7.05176 z"
       id="path49"
       transform="scale(0.26458333)" /><path
       id="path50"
       style="opacity:1;fill:#ffca5e;fill-opacity:1;fill-rule:nonzero;stroke-width:0.5"
       d="m 432,30.345703 c -13.36733,-0.126553 -26.89074,0.130983 -39.92578,3.613281 -28.39859,6.174254 -56.22338,18.024818 -78.41797,36.962891 a 0.25002512,0.25002512 0 0 0 -0.002,0 C 300.16403,82.539331 287.75026,95.651809 277.67187,110.4043 a 0.25002512,0.25002512 0 0 0 -0.008,0.0117 c -1.56,2.59695 -3.58726,6.01394 -4.5,8.86328 a 0.25002512,0.25002512 0 0 0 0.084,0.27343 c 3.10206,2.42813 6.92641,6.19075 11.30273,6.2754 a 0.25002512,0.25002512 0 0 0 0.13086,-0.0352 c 4.24629,-2.52418 6.41703,-7.67863 9.28906,-11.33203 a 0.25002512,0.25002512 0 0 0 0.01,-0.0156 c 12.95253,-19.303251 26.06379,-39.75973 46.51758,-51.72656 23.40166,-13.748446 50.0878,-22.425031 77.25781,-23.746094 15.8746,-0.171346 31.93795,-0.971049 47.4707,2.582031 a 0.25002512,0.25002512 0 0 0 0.006,0 c 21.52237,4.378802 42.80029,12.486261 60.07813,26.291016 16.79954,14.426502 30.27468,32.380927 42.33203,50.931637 a 0.25002512,0.25002512 0 0 0 0.008,0.0117 c 0.66081,0.89281 1.5391,2.17613 2.69531,2.94922 0.57811,0.38655 1.23421,0.64416 1.95899,0.63867 0.72477,-0.005 1.50442,-0.27627 2.32226,-0.89843 l -0.0254,0.0176 c 1.18665,-0.69227 2.9146,-1.35769 4.41406,-2.24609 1.49947,-0.8884 2.80451,-2.02692 3.04688,-3.69141 a 0.25002512,0.25002512 0 0 0 -0.002,-0.084 c -1.12776,-5.64238 -5.45196,-10.44186 -8.58789,-14.93555 a 0.25002512,0.25002512 0 0 0 -0.01,-0.0137 C 561.23949,85.409459 547.30905,70.697494 531.4043,59.376953 a 0.25002512,0.25002512 0 0 0 -0.01,-0.0078 C 517.10542,50.17992 501.00009,43.730569 485.00977,38.128906 a 0.25002512,0.25002512 0 0 0 -0.004,0 c -13.64597,-4.542058 -27.84993,-8.09293 -42.36719,-7.738281 h -0.01 c -3.54288,-0.04486 -7.08544,-0.0486 -10.62696,-0.04492 z"
       transform="scale(0.26458333)" /><path
       style="opacity:1;fill:#ffca5e;fill-opacity:1;fill-rule:nonzero;stroke-width:0.5"
       d="m 582.14746,121.77637 c -2.43524,1.73057 -5.05644,4.1025 -5.56152,7.25879 -0.41322,3.25724 0.92316,7.24066 3.8789,9.03027 3.81092,1.26205 8.92619,-0.5971 11.90332,-2.93066 2.7747,-2.14517 -0.313,-6.10241 -1.51577,-8.26577 -1.55231,-2.26611 -3.29951,-4.53103 -5.62583,-5.9647 -0.65137,0.33235 -2.42773,0.53971 -3.0791,0.87207 z"
       id="path51"
       transform="scale(0.26458333)" /><path
       style="opacity:1;fill:#ffca5e;fill-opacity:1;fill-rule:nonzero;stroke-width:0.5"
       d="m 589.21679,140.15723 c -2.33291,0.83883 -3.77157,4.19989 -2.6455,6.35839 4.17744,15.02903 9.18199,30.06003 10.74909,45.62184 0.24707,2.41981 0.30244,7.01746 3.6054,6.85961 3.62934,1.08329 5.70415,-0.85336 4.4564,-4.02313 -1.24699,-16.66254 -4.60486,-33.55772 -11.2064,-48.94464 -1.06349,-1.89409 -2.34013,-5.89897 -4.95899,-5.87207 z"
       id="path52"
       transform="scale(0.26458333)" /><path
       id="path53"
       style="opacity:1;fill:#ffca5e;fill-opacity:1;fill-rule:nonzero;stroke-width:0.5"
       d="m 609.33594,205.04492 c -0.0479,0.0116 -0.0976,0.0363 -0.13477,0.0801 -0.008,0.009 -0.006,0.0214 -0.0117,0.0312 -0.95068,-0.10169 -1.93885,0.23406 -2.54492,0.7832 -0.31361,0.28416 -0.52793,0.62693 -0.56055,1 -0.0326,0.37308 0.12575,0.76393 0.50782,1.10742 1.55201,1.40637 2.35082,3.60858 3.06054,5.8711 0.70989,2.26302 1.32932,4.58199 2.57813,6.20898 a 0.1250125,0.1250125 0 0 0 0.084,0.0488 c 0.49916,0.0618 0.91302,-0.14741 1.22657,-0.49414 0.31354,-0.34673 0.54178,-0.82829 0.7246,-1.35156 0.36566,-1.04655 0.5474,-2.27132 0.73438,-2.8711 a 0.1250125,0.1250125 0 0 0 0.004,-0.0195 c 0.27639,-1.92533 0.42332,-3.91132 0.0176,-5.61718 -0.40574,-1.70587 -1.38035,-3.13433 -3.31054,-3.88672 a 0.1250125,0.1250125 0 0 0 -0.0274,-0.006 c 0.0185,0.003 -0.0532,-0.0178 -0.13086,-0.0527 -0.0776,-0.035 -0.17983,-0.0839 -0.29687,-0.14062 -0.23407,-0.11338 -0.52733,-0.25885 -0.81641,-0.38672 -0.28908,-0.12787 -0.57127,-0.23901 -0.79687,-0.28906 -0.1128,-0.025 -0.21091,-0.0388 -0.30664,-0.0156 z"
       transform="scale(0.26458333)" /><path
       style="opacity:1;fill:#ffca5e;fill-opacity:1;fill-rule:nonzero;stroke-width:0.5"
       d="m 594.98047,206.58594 c -2.11167,0.42502 0.51945,3.97128 0.61523,5.30371 5.29007,19.62838 4.40311,40.19863 4.97552,60.3779 0.11752,24.92712 -0.3473,50.03256 -4.98626,74.59085 -0.58895,1.631 -0.19991,4.48608 1.81348,4.17968 5.14314,0.34661 8.65485,-5.29595 8.69042,-10.36035 4.1225,-16.63804 3.33763,-33.94745 3.97464,-50.92338 0.0886,-21.64066 0.5557,-43.4442 -0.73928,-65.05513 -1.32956,-6.50406 -5.06743,-13.97742 -10.71094,-17.7666 -0.72806,-0.38748 -2.79805,-0.41274 -3.63281,-0.34668 z"
       id="path55"
       transform="scale(0.26458333)" /><path
       style="opacity:1;fill:#8e6444;fill-opacity:1;fill-rule:nonzero;stroke-width:0.124724;stroke-dasharray:none"
       d="m 405.50464,323.70386 c -1.93831,0.38506 -3.70278,1.42431 -5.30225,2.55249 -1.18832,1.02895 -2.52147,2.06526 -3.18603,3.52758 -0.45189,1.72608 0.92021,3.4297 2.43457,4.10938 1.20404,0.51892 2.71566,0.33268 3.60753,-0.68533 1.8565,-1.75916 3.86837,-3.80608 4.05384,-6.50705 0.0871,-1.06656 -0.0259,-2.62873 -1.2583,-2.97657 -0.11479,-0.0229 -0.23267,-0.0292 -0.34936,-0.0205 z"
       id="path85"
       transform="scale(0.26458333)" /><circle
       style="fill:#000000;fill-opacity:1;fill-rule:nonzero;stroke-width:0.211666"
       id="path86-6"
       cx="128.29773"
       cy="65.165001"
       r="2.9934187" /><circle
       style="fill:#000000;fill-opacity:1;fill-rule:nonzero;stroke-width:0.211666"
       id="path86-6-2"
       cx="99.332916"
       cy="66.193985"
       r="2.9934187" /><ellipse
       style="opacity:1;fill:#ffffff;fill-opacity:1;fill-rule:nonzero;stroke:none;stroke-width:0.0709153;stroke-linejoin:bevel;stroke-dasharray:none;stroke-opacity:1"
       id="path113"
       cx="100.17728"
       cy="65.049561"
       rx="0.66378731"
       ry="0.62838531" /><ellipse
       style="fill:#ffffff;fill-opacity:1;fill-rule:nonzero;stroke:none;stroke-width:0.0709153;stroke-linejoin:bevel;stroke-dasharray:none;stroke-opacity:1"
       id="path113-3"
       cx="129.21173"
       cy="64.200043"
       rx="0.66378731"
       ry="0.62838531" /><path
       style="opacity:1;fill:none;fill-opacity:1;fill-rule:nonzero;stroke:#000000;stroke-width:1.225;stroke-linejoin:bevel;stroke-dasharray:none;stroke-opacity:1;paint-order:markers fill stroke"
       d="m 108.85741,69.665485 c 0,0 5.1733,9.373985 10.3466,-0.189375"
       id="path115" /><path
       style="opacity:1;fill:#ffca5e;fill-opacity:1;fill-rule:nonzero;stroke:none;stroke-width:0.0888189;stroke-linejoin:bevel;stroke-dasharray:none;stroke-opacity:1;paint-order:markers fill stroke"
       d="m 613.87939,223.13769 c -1.15715,0.41658 -0.74575,2.11094 -0.96174,3.07142 -0.41011,15.62375 -0.12576,31.2585 -0.21365,46.88659 -0.0502,12.75292 0.0952,25.51304 -0.0772,38.26147 -0.65231,9.61205 -1.62105,19.2889 -1.32704,28.90113 0.89943,0.92342 2.20513,2.1413 3.52881,1.1582 5.08906,-2.29434 9.62923,-6.10516 12.44238,-10.95556 3.17617,-6.45354 3.33112,-13.83865 3.87769,-20.87229 0.80552,-17.39151 0.79861,-34.81327 0.63865,-52.21938 -0.18523,-7.10108 0.0447,-14.52485 -3.07298,-21.1056 -2.5335,-5.34924 -6.81078,-10.13801 -12.32338,-12.48013 -0.81079,-0.30949 -1.66931,-0.49484 -2.51158,-0.64585 z"
       id="path146"
       transform="scale(0.26458333)" /></g></svg>
